<svg width="62" height="51" viewBox="0 0 62 51" fill="none" xmlns="http://www.w3.org/2000/svg">
<path fill-rule="evenodd" clip-rule="evenodd" d="M13.2811 36.6642C11.6525 33.3457 10.7376 29.6142 10.7376 25.6681C10.7376 11.8612 21.9306 0.668152 35.7376 0.668152C42.4617 0.668152 48.5654 3.3232 53.0581 7.64157C39.6548 10.3876 31.3477 17.3554 26.2317 26.9008L26.232 26.9024C34.2336 18.6667 44.0544 10.1304 61.1523 9.20732C56.1536 40.1002 24.5252 48.811 0 37.527C15.9364 40.8549 35.7574 39.9695 52.646 20.3069C42.0442 29.3755 26.7618 36.2119 13.2811 36.6642Z" fill="#8EC73D"/>
<path fill-rule="evenodd" clip-rule="evenodd" d="M35.7362 50.6681C29.0463 50.6681 22.9699 48.0403 18.4834 43.7605C27.2679 44.2689 36.1418 42.5279 43.809 38.0796C51.437 33.6543 56.7914 27.1708 59.9524 19.4377C60.464 21.4294 60.7362 23.5168 60.7362 25.6681C60.7362 39.4751 49.5432 50.6681 35.7362 50.6681Z" fill="white"/>
</svg>
